<svg width="30" height="34" viewBox="0 0 30 34" fill="none" xmlns="http://www.w3.org/2000/svg">
<g clip-path="url(#clip0_19_17)">
<path d="M18.2812 1.6547L26.3359 6.30508C26.9547 6.66234 27.3359 7.32259 27.3359 8.03713V17.3379C27.3359 18.0524 26.9547 18.7127 26.3359 19.0699L18.2812 23.7203C17.6624 24.0776 16.9001 24.0776 16.2812 23.7203L8.22657 19.0699C7.60776 18.7127 7.22657 18.0524 7.22657 17.3379V8.03713C7.22657 7.32259 7.60776 6.66234 8.22657 6.30507L16.2812 1.6547C16.9001 1.29743 17.6624 1.29743 18.2812 1.6547Z" stroke="#009FE3"/>
<path d="M11.7188 9.84669C12.4923 9.40011 13.4452 9.40011 14.2188 9.84669L22.2734 14.4971C23.0469 14.9436 23.5234 15.769 23.5234 16.6621V25.9629C23.5234 26.856 23.0469 27.6814 22.2734 28.1279L14.2187 32.7783C13.4452 33.2249 12.4923 33.2249 11.7187 32.7783L3.66407 28.1279C2.89056 27.6814 2.41407 26.856 2.41407 25.9629V16.6621C2.41407 15.769 2.89056 14.9436 3.66407 14.4971L11.7188 9.84669Z" fill="#009FE3"/>
</g>
<defs>
<clipPath id="clip0_19_17">
<rect width="28.6875" height="33" fill="white" transform="translate(0.78125 0.5)"/>
</clipPath>
</defs>
</svg>
