<svg width="36" height="40" viewBox="0 0 36 40" fill="none" xmlns="http://www.w3.org/2000/svg">
<path d="M21.4563 4.35159L29.5109 9.00197C30.238 9.42175 30.6859 10.1976 30.6859 11.0371V20.3379C30.6859 21.1774 30.238 21.9532 29.5109 22.373L21.4562 27.0234C20.7292 27.4432 19.8333 27.4432 19.1062 27.0234L11.0516 22.373C10.3245 21.9532 9.87657 21.1774 9.87657 20.3379V11.0371C9.87657 10.1976 10.3245 9.42175 11.0516 9.00197L19.1063 4.35159C19.8333 3.9318 20.7292 3.9318 21.4563 4.35159Z" fill="#F2F2F2" stroke="#009FE3" stroke-width="0.3"/>
<path d="M14.7188 12.8467C15.4923 12.4001 16.4452 12.4001 17.2188 12.8467L25.2734 17.4971C26.0469 17.9436 26.5234 18.769 26.5234 19.6621V28.9629C26.5234 29.856 26.0469 30.6814 25.2734 31.1279L17.2187 35.7783C16.4452 36.2249 15.4923 36.2249 14.7187 35.7783L6.66407 31.1279C5.89056 30.6814 5.41407 29.856 5.41407 28.9629V19.6621C5.41407 18.769 5.89056 17.9436 6.66407 17.4971L14.7188 12.8467Z" fill="#009FE3"/>
</svg>
